<?xml version="1.0" encoding="UTF-8" standalone="no"?><!DOCTYPE svg PUBLIC "-//W3C//DTD SVG 1.1//EN" "http://www.w3.org/Graphics/SVG/1.1/DTD/svg11.dtd"><svg width="100%" height="100%" viewBox="0 0 2134 2134" version="1.1" xmlns="http://www.w3.org/2000/svg" xmlns:xlink="http://www.w3.org/1999/xlink" xml:space="preserve" xmlns:serif="http://www.serif.com/" style="fill-rule:evenodd;clip-rule:evenodd;stroke-linejoin:round;stroke-miterlimit:2;"><circle cx="1066.67" cy="1066.67" r="1066.67" style="fill:#0263c0;"/><path d="M594.264,622.542c-0,-30.004 24.323,-54.327 54.327,-54.327c62.672,-0 163.515,-0 213.73,-0c18.916,-0 36.47,9.839 46.342,25.975c74.926,122.471 390,637.476 407.201,665.591c0.455,0.744 1.264,1.197 2.136,1.197c0.364,0 0.729,0 0.996,0c0.23,0 0.417,-0.186 0.417,-0.416c-0,-15.816 -0,-477.543 -0,-638.02c-0,-14.409 5.724,-28.227 15.912,-38.415c10.188,-10.189 24.007,-15.912 38.415,-15.912c33.825,-0 77.177,-0 111.002,-0c14.409,-0 28.227,5.723 38.416,15.912c10.188,10.188 15.912,24.006 15.912,38.415c-0,173.73 -0,714.519 -0,888.249c-0,14.409 -5.724,28.227 -15.912,38.416c-10.189,10.188 -24.007,15.912 -38.416,15.912c-59.968,-0 -154.366,-0 -202.499,-0c-18.898,-0 -36.438,-9.821 -46.315,-25.932c-78.301,-127.714 -419.191,-683.729 -419.191,-683.729l-1.416,0c-0.372,0 -0.728,0.148 -0.99,0.41c-0.263,0.263 -0.411,0.619 -0.411,0.99c0,28.774 0,493.103 0,653.934c0,30.004 -24.323,54.327 -54.327,54.327c-33.825,-0 -77.177,-0 -111.002,-0c-14.409,-0 -28.227,-5.724 -38.415,-15.912c-10.189,-10.189 -15.912,-24.007 -15.912,-38.416c-0,-173.73 -0,-714.519 -0,-888.249Z" style="fill:#fff;fill-rule:nonzero;"/></svg>